# xmcd CD database file
#
# Track frame offsets:
#	150
#	17630
#	44346
#	62693
#	87101
#	110592
#	128339
#	147708
#	167594
#	189340
#	210527
#	227568
#
# Disc length: 3253 seconds
#
# Revision: 0
# Processed by: cddbd v1.5.1PL0 Copyright (c) Steve Scherf et al.
# Submitted via: CDex 1.51
#
DISCID=9a0cb30c
DTITLE=Wala - Feemor
DYEAR=2004
DGENRE=Rhythmic Soul
TTITLE0=Feemo Aha Moko
TTITLE1=Mieyaba
TTITLE2=Dunia Doud Sem
TTITLE3=Awo Awo
TTITLE4=Datse
TTITLE5=Daane Sane
TTITLE6=One People
TTITLE7=Nyami Ni Penin
TTITLE8=Mobo Sane
TTITLE9=Let's Unite
TTITLE10=Bele
TTITLE11=Mijii
EXTD=YEAR: 2004
EXTT0=
EXTT1=
EXTT2=
EXTT3=
EXTT4=
EXTT5=
EXTT6=
EXTT7=
EXTT8=
EXTT9=
EXTT10=
EXTT11=
PLAYORDER=
